#!OML:ASF H:\Male1\Project 1\Capture day 1\Session 1\Male1.ASF
:FULLY-SPECIFIED
:DEGREES
693
root 31.3521 14.6034 2.52206 180.05 14.0989 -178.971
lowerback 27.2644 -1.54394 0.84903
upperback 12.572 1.20261 -4.00952
thorax -0.935149 2.06808 -5.2231
lowerneck 2.1083 12.5603 16.5762
upperneck -13.6556 16.3149 -23.9397
head -0.709896 8.90737 -9.88091
rclavicle -2.06736e-014 8.74653e-015
rhumerus 8.91025 -0.694331 -59.8723
rradius 124.214
rwrist -15.4142
rhand -35.3451 -1.43424
rfingers 7.12502
rthumb -8.47779 -31.2441
lclavicle -2.06736e-014 8.74653e-015
lhumerus -10.2428 15.0164 35.3494
lradius 120.007
lwrist -12.1001
lhand -36.7049 18.6985
lfingers 7.12502
lthumb -9.78994 48.451
rfemur -29.3889 8.36533 7.3142
rtibia 50.7031
rfoot -13.6103 -25.8304
rtoes -30.6127
lfemur -24.9463 -5.8391 -9.97255
ltibia 47.8914
lfoot -21.833 9.77936
ltoes -21.3082
694
root 31.1648 14.5596 2.53091 180.055 14.4914 -178.993
lowerback 27.4585 -1.42875 0.527535
upperback 12.5315 1.26675 -4.06164
thorax -1.06494 2.08432 -5.12221
lowerneck 2.19459 12.548 16.4616
upperneck -13.8828 16.2853 -23.8065
head -0.820367 8.90338 -9.84558
rclavicle -7.79236e-014 4.92986e-014
rhumerus 8.85026 -0.570751 -59.8504
rradius 124.454
rwrist -15.3548
rhand -35.336 -1.34761
rfingers 7.12502
rthumb -8.46901 -31.1578
lclavicle -7.79236e-014 4.92986e-014
lhumerus -10.2445 15.0974 35.2983
lradius 119.967
lwrist -12.1684
lhand -36.6634 18.1531
lfingers 7.12502
lthumb -9.74986 47.9074
rfemur -30.6963 7.3655 7.96516
rtibia 53.4238
rfoot -14.7722 -25.2627
rtoes -30.873
lfemur -25.8588 -5.45362 -10.7163
ltibia 49.2885
lfoot -22.2713 9.85489
ltoes -20.4093
695
root 30.9854 14.5122 2.53913 180.028 14.8831 -178.985
lowerback 27.6567 -1.30461 0.255263
upperback 12.509 1.36015 -4.08959
thorax -1.17418 2.11957 -5.03103
lowerneck 2.26765 12.5621 16.3153
upperneck -14.1285 16.2894 -23.6959
head -0.927491 8.92033 -9.80911
rclavicle 3.97569e-014 -5.64548e-014
rhumerus 8.78885 -0.50082 -59.7877
rradius 124.691
rwrist -15.257
rhand -35.3368 -1.26365
rfingers 7.12502
rthumb -8.46982 -31.0738
lclavicle 3.97569e-014 -5.64548e-014
lhumerus -10.184 15.1332 35.3824
lradius 119.903
lwrist -12.2301
lhand -36.6753 17.7756
lfingers 7.12502
lthumb -9.76138 47.5294
rfemur -31.9678 6.20931 8.98628
rtibia 56.3944
rfoot -16.0022 -24.566
rtoes -31.0269
lfemur -26.719 -5.16446 -11.3978
ltibia 50.6808
lfoot -22.7388 9.91223
ltoes -19.0769
696
root 30.8141 14.4633 2.54644 179.989 15.2623 -178.949
lowerback 27.8387 -1.17322 0.05406
upperback 12.5072 1.48683 -4.10033
thorax -1.24969 2.17702 -4.97011
lowerneck 2.28581 12.5876 16.2109
upperneck -14.3429 16.3084 -23.6688
head -1.00023 8.94566 -9.79722
rclavicle 1.43125e-014 -2.06736e-014
rhumerus 8.70317 -0.514074 -59.727
rradius 124.917
rwrist -15.1255
rhand -35.3472 -1.1539
rfingers 7.12502
rthumb -8.47988 -30.9636
lclavicle 1.43125e-014 -2.06736e-014
lhumerus -10.0383 15.1007 35.6137
lradius 119.812
lwrist -12.3061
lhand -36.754 17.5729
lfingers 7.12502
lthumb -9.83731 47.3231
rfemur -33.1623 4.97912 10.3199
rtibia 59.4499
rfoot -17.2715 -23.7309
rtoes -30.7317
lfemur -27.536 -4.97591 -12.021
ltibia 52.0414
lfoot -23.2227 9.97866
ltoes -17.5141
697
root 30.6516 14.4149 2.55263 179.965 15.6125 -178.895
lowerback 27.9794 -1.04323 -0.0816377
upperback 12.5212 1.63135 -4.09955
thorax -1.28685 2.24729 -4.93711
lowerneck 2.24276 12.598 16.2111
upperneck -14.4974 16.3085 -23.7881
head -1.02298 8.96171 -9.84025
rclavicle 2.3059e-014 3.26007e-014
rhumerus 8.59886 -0.58955 -59.6756
rradius 125.132
rwrist -14.9921
rhand -35.3813 -1.02008
rfingers 7.12502
rthumb -8.5128 -30.8285
lclavicle 2.3059e-014 3.26007e-014
lhumerus -9.84857 15.0153 35.9565
lradius 119.707
lwrist -12.3921
lhand -36.8804 17.4973
lfingers 7.12502
lthumb -9.95927 47.2417
rfemur -34.2576 3.73303 11.8952
rtibia 62.4333
rfoot -18.3264 -22.7684
rtoes -30.4595
lfemur -28.3334 -4.88319 -12.5965
ltibia 53.3442
lfoot -23.6876 10.1031
ltoes -16.0362
698
root 30.4985 14.3686 2.55749 179.976 15.9259 -178.845
lowerback 28.065 -0.919814 -0.200839
upperback 12.54 1.76977 -4.0861
thorax -1.29469 2.31388 -4.89523
lowerneck 2.15458 12.5985 16.3645
upperneck -14.5826 16.2989 -24.1102
head -0.982637 8.97381 -9.96294
rclavicle -7.4743e-014 8.74653e-015
rhumerus 8.49992 -0.669285 -59.6334
rradius 125.331
rwrist -14.8781
rhand -35.4471 -0.88227
rfingers 7.12502
rthumb -8.57627 -30.6881
lclavicle -7.4743e-014 8.74653e-015
lhumerus -9.70047 14.9088 36.361
lradius 119.608
lwrist -12.4675
lhand -36.9916 17.5016
lfingers 7.12502
lthumb -10.0665 47.2408
rfemur -35.2451 2.51466 13.6345
rtibia 65.2191
rfoot -19.1546 -21.5374
rtoes -30.3191
lfemur -29.1291 -4.87884 -13.1479
ltibia 54.5702
lfoot -24.1024 10.3326
ltoes -14.9198
699
root 30.3551 14.3255 2.56087 180.031 16.2064 -178.807
lowerback 28.0873 -0.804884 -0.344577
upperback 12.5575 1.88631 -4.06137
thorax -1.27836 2.3658 -4.81734
lowerneck 2.05438 12.6021 16.647
upperneck -14.6347 16.2977 -24.5933
head -0.898086 8.99209 -10.1525
rclavicle 2.22639e-014 1.35174e-014
rhumerus 8.42795 -0.70739 -59.6086
rradius 125.512
rwrist -14.7895
rhand -35.5358 -0.768311
rfingers 7.12502
rthumb -8.66186 -30.5706
lclavicle 2.22639e-014 1.35174e-014
lhumerus -9.66223 14.8113 36.776
lradius 119.527
lwrist -12.5191
lhand -37.0533 17.6197
lfingers 7.12502
lthumb -10.126 47.356
rfemur -36.1179 1.39684 15.4647
rtibia 67.705
rfoot -19.6577 -19.9814
rtoes -30.6838
lfemur -29.9242 -4.95555 -13.6816
ltibia 55.7069
lfoot -24.4668 10.6529
ltoes -14.1234
